Aka Lost Colony or Lost Colony: The Legend of Roanoke.

English colonists arriving on Roanoke Island in 1587 find the fort built years before deserted. Soon after members of the colony begin to die in horrible ways. Leader Before returning to England for provisions, John White puts his son-in-law Ananais Dare in charge, and Dare realizes the island is haunted by Norse spirits. Enlisting the aid of a friendly Native American, Dare attempts to free the spirits from their earthly captivity before the entire colony is lost..
 
http://www.imdb.com/title/tt0875696/

Subs: Dutch, English (srt).


Kolonisten op Roanoke eiland, Virginia, worden eind 16de eeuw aangevallen door kwaadaardige geesten, overblijfselen van de Vikingen. De geesten jagen op de eerst-geboren kinderen om zo in het Walhalla te komen. Er wordt geprobeerd om met behulp van een vriendelijke Indiaan de geesten te bevrijden uit hun Aardse gevangenis, voordat de kolonie verloren is.
 
http://www.moviemeter.nl/film/49784

Ondertitels: Engels, Nederlands (srt).


General
Complete name                    : Wraiths of Roanoke-AC3-XviD-DVDRip 2007 TBS\Wraiths of Roanoke-AC3-XviD-DVDRip 2007 TBS.avi
Format                           : AVI
Format/Info                      : Audio Video Interleave
File size                        : 1.36 GiB
Duration                         : 1h 27mn
Overall bit rate                 : 2 227 Kbps
Writing application              : VirtualDubMod 1.5.4.1 (build 2178/release)
Writing library                  : VirtualDubMod build 2178/release

Video
ID                               : 0
Format                           : MPEG-4 Visual
Format profile                   : Simple@L3
Format settings, BVOP            : No
Format settings, QPel            : No
Format settings, GMC             : No warppoints
Format settings, Matrix          : Default (H.263)
Codec ID                         : XVID
Codec ID/Hint                    : XviD
Duration                         : 1h 27mn
Bit rate                         : 2 025 Kbps
Width                            : 720 pixels
Height                           : 400 pixels
Display aspect ratio             : 16:9
Frame rate                       : 25.000 fps
Resolution                       : 8 bits
Colorimetry                      : 4:2:0
Scan type                        : Progressive
Bits/(Pixel*Frame)               : 0.281
Stream size                      : 1.24 GiB (91%)
Writing library                  : XviD 1.1.2 (UTC 2006-11-01)

Audio
ID                               : 1
Format                           : AC-3
Format/Info                      : Audio Coding 3
Format profile                   : Dolby Digital
Codec ID                         : 2000
Duration                         : 1h 27mn
Bit rate mode                    : Constant
Bit rate                         : 192 Kbps
Channel(s)                       : 2 channels
Channel positions                : L R
Sampling rate                    : 48.0 KHz
Stream size                      : 120 MiB (9%)
Alignment                        : Split accross interleaves
Interleave, duration             : 40 ms (1.00 video frame)
Interleave, preload duration     : 500 ms

Thanks to Unholy Ghost & Putteam.

Blackbeard  TBS.